<?xml version="1.0" encoding="UTF-8"?> <svg xmlns="http://www.w3.org/2000/svg" width="1842" height="1019" viewBox="0 0 1842 1019" fill="none"> <g clip-path="url(#clip0_154_39)"> <path fill-rule="evenodd" clip-rule="evenodd" d="M945.934 404.684L843.658 373.229L771.734 337.543C723.539 312.158 652.167 248.143 670.561 186.52C670.929 185.232 671.849 183.209 672.401 182.105C700.913 116.435 818.089 120.298 866.836 117.355C845.314 105.03 839.243 100.8 807.972 94.3613C534.623 17.4704 573.804 464.652 945.934 404.684ZM1162.44 266.538L1183.05 224.414L1200.15 183.761L1204.2 170.516L1207.33 151.018C1221.12 92.8897 1195 57.3874 1164.47 29.0592C1138.35 10.6642 1115.54 -0.00485158 1074.15 0.179098C1011.6 0.546997 929.011 36.969 898.843 96.9366C943.175 83.3243 970.767 67.5047 1020.99 54.4442C1143.13 37.7048 1126.76 180.818 1090.33 254.949C1034.78 368.262 945.382 438.531 865.548 532.161C939.312 513.95 1109.83 359.985 1162.44 266.538Z" fill="white"></path> <path fill-rule="evenodd" clip-rule="evenodd" d="M871.067 359.444C883.207 331.851 881.736 274.827 911.72 265.629C927.171 270.228 926.252 280.897 934.345 292.486C938.392 261.031 912.455 224.057 889.83 267.837C876.401 293.774 865.548 325.045 871.067 359.444Z" fill="white"></path> <path fill-rule="evenodd" clip-rule="evenodd" d="M880.816 175.494C908.776 187.45 922.94 166.664 948.509 163.353C984.748 158.57 967.088 198.487 967.088 221.849C988.794 190.578 999.28 117.734 922.021 162.801C892.037 180.276 893.693 170.527 880.816 175.494Z" fill="white"></path> <path fill-rule="evenodd" clip-rule="evenodd" d="M865.18 364.405C833.909 287.514 878.609 278.501 870.699 232.881C866.836 210.807 846.969 198.667 846.418 178.432C845.682 150.84 874.93 153.599 898.659 152.863C882.656 137.779 844.946 134.468 831.518 152.495C814.962 174.937 836.116 202.898 844.578 219.821C868.124 266.728 821.584 348.77 865.18 364.405Z" fill="white"></path> <path fill-rule="evenodd" clip-rule="evenodd" d="M948.877 355.022C936.737 327.429 938.208 270.405 908.224 261.208C892.773 265.806 893.692 276.475 885.599 288.064C881.552 256.609 907.489 219.635 930.114 263.415C943.543 289.352 954.212 320.807 948.877 355.022Z" fill="white"></path> <path fill-rule="evenodd" clip-rule="evenodd" d="M948.877 372.32C982.54 295.981 934.529 286.968 942.991 241.716C947.038 219.642 968.56 207.685 969.112 187.451C969.48 171.447 961.57 161.698 948.325 163.354C938.76 164.457 925.7 175.678 915.031 175.31C930.298 156.363 966.352 135.209 985.115 161.698C1003.14 184.14 980.333 211.732 971.135 228.656C945.934 275.379 995.968 356.869 948.877 372.32Z" fill="white"></path> <path fill-rule="evenodd" clip-rule="evenodd" d="M987.507 160.582C1081.32 160.582 1053.73 211.352 1001.85 246.67C946.302 284.564 807.972 324.849 807.972 265.249C807.972 247.59 821.768 239.864 828.942 229.379C792.704 239.128 761.984 310.133 861.869 310.133C897.003 308.109 954.028 286.771 1000.02 260.466C1064.03 223.676 1106.52 177.321 1038.46 160.214C1023.56 156.351 1006.27 157.455 987.323 157.455V160.582H987.507Z" fill="white"></path> </g> <path fill-rule="evenodd" clip-rule="evenodd" d="M1801.52 713.582C1802.98 707.737 1803.71 702.622 1803.71 698.055C1803.71 692.209 1802.07 688.008 1798.6 685.633C1795.12 683.258 1789.46 681.98 1781.24 681.98C1769.92 681.98 1761.88 684.537 1757.13 689.652C1752.2 694.584 1748.18 702.622 1745.07 713.582H1801.52ZM1812.11 743.906H1737.22C1734.66 756.327 1733.38 765.461 1733.38 771.307C1733.38 778.614 1735.39 783.911 1739.23 787.382C1743.06 790.853 1750 792.497 1759.5 792.497H1788.37C1796.59 792.497 1802.43 792.131 1806.09 791.218C1809.56 790.305 1813.03 787.93 1816.13 784.276H1820.52L1816.31 801.265C1814.31 810.033 1810.29 816.061 1804.44 819.35C1798.6 822.638 1788.55 824.282 1774.48 824.282H1749.64C1741.05 824.282 1733.2 823.551 1726.44 821.907C1719.68 820.263 1713.84 817.523 1708.9 813.687C1703.97 809.851 1700.13 804.553 1697.39 797.794C1694.65 791.035 1693.38 782.815 1693.38 772.951C1693.38 761.442 1695.2 748.29 1698.67 733.128C1703.06 713.947 1708.9 698.42 1715.84 686.547C1722.97 674.673 1732.1 665.905 1743.25 660.242C1754.21 654.761 1768.09 651.839 1784.71 651.839C1822.71 651.839 1841.71 666.453 1841.71 695.315C1841.71 699.516 1840.98 705.727 1839.51 713.582C1837.69 721.985 1835.68 728.379 1833.67 732.58C1831.48 736.964 1828.74 739.887 1825.63 741.348C1822.34 743.175 1817.78 743.906 1812.11 743.906ZM1493.9 711.025L1472.16 803.457C1471.79 805.101 1471.61 807.11 1471.61 809.485C1471.61 811.86 1472.16 813.504 1473.26 814.417C1474.35 815.513 1476.18 816.427 1479.1 816.975L1478.19 822.09H1447.68C1438 822.09 1433.25 817.888 1433.25 809.851C1433.25 807.659 1433.8 804.188 1434.89 799.438L1465.4 669.193C1465.77 666.635 1466.13 664.991 1466.13 663.895C1466.13 660.059 1463.76 657.684 1459.19 656.771L1460.47 651.839H1491.34C1500.29 651.839 1504.49 655.492 1504.49 662.982C1504.49 664.443 1504.13 667.366 1503.21 672.115H1505.41L1517.46 657.136C1524.59 651.839 1536.83 649.281 1554 649.281C1564.23 649.281 1571.9 651.108 1577.38 654.944C1582.86 658.78 1586.51 664.626 1588.7 672.663L1601.86 657.319C1606.79 654.213 1611.36 652.204 1615.74 651.108C1620.12 650.012 1628.16 649.464 1639.85 649.464C1663.97 649.464 1676.02 660.79 1676.02 683.806C1676.02 690.017 1675.29 696.045 1673.83 702.074L1649.9 803.822C1649.53 805.466 1649.35 807.476 1649.35 809.851C1649.35 812.225 1649.9 813.869 1651 814.783C1652.09 815.879 1654.1 816.792 1656.84 817.34L1655.93 822.455H1625.42C1615.74 822.455 1610.99 818.254 1610.99 810.216C1610.99 807.841 1611.54 804.37 1612.63 799.804L1634.92 702.804C1635.65 699.882 1636.2 696.776 1636.2 694.036C1636.2 685.085 1630.17 680.701 1617.93 680.701C1607.34 680.701 1599.66 682.893 1594.37 686.912C1589.25 691.113 1585.23 699.151 1582.49 710.842L1560.76 803.274C1560.39 804.918 1560.02 806.928 1560.02 809.303C1560.02 811.677 1560.57 813.321 1561.67 814.235C1562.76 815.331 1564.77 816.244 1567.51 816.792L1566.6 821.907H1536.09C1526.41 821.907 1521.66 817.706 1521.66 809.668C1521.66 807.293 1522.21 803.822 1523.31 799.256L1545.96 702.622C1546.69 699.699 1547.24 696.594 1547.24 693.853C1547.24 684.902 1541.21 680.518 1528.97 680.518C1518.38 680.518 1510.7 682.71 1505.59 686.729C1500.66 691.296 1496.64 699.334 1493.9 711.025ZM1318.9 717.418H1373.15L1384.48 669.193C1384.84 666.635 1385.02 664.991 1385.02 663.712C1385.02 660.059 1382.83 657.502 1378.08 656.588L1379.36 651.656H1410.05C1418.82 651.656 1423.2 655.309 1423.2 662.799C1423.2 664.26 1422.84 667.183 1422.11 671.933L1391.24 803.457C1390.87 805.101 1390.5 807.11 1390.5 809.485C1390.5 811.86 1391.05 813.504 1392.15 814.417C1393.24 815.513 1395.25 816.427 1397.99 816.975L1397.08 822.09H1366.57C1356.89 822.09 1352.14 817.888 1352.14 809.851C1352.14 807.659 1352.69 804.188 1353.79 799.438L1366.03 747.742H1311.96L1298.8 803.457C1298.44 805.101 1298.25 807.11 1298.25 809.485C1298.25 811.86 1298.8 813.504 1299.9 814.417C1301 815.513 1303 816.244 1305.74 816.975L1304.83 822.09H1274.32C1264.64 822.09 1259.71 817.888 1259.71 809.851C1259.71 807.293 1260.26 803.822 1261.36 799.438L1291.86 669.193C1292.23 666.635 1292.59 664.991 1292.59 663.712C1292.59 660.059 1290.22 657.502 1285.65 656.588L1286.93 651.656H1317.8C1326.75 651.656 1331.14 655.309 1331.14 662.799C1331.14 664.443 1330.77 667.549 1329.86 671.933L1318.9 717.418ZM1208.01 713.582C1209.48 707.737 1210.21 702.622 1210.21 698.055C1210.21 692.209 1208.56 688.008 1205.09 685.633C1201.62 683.258 1195.96 681.98 1187.74 681.98C1176.41 681.98 1168.37 684.537 1163.44 689.652C1158.51 694.584 1154.49 702.622 1151.39 713.582H1208.01ZM1218.43 743.906H1143.53C1140.97 756.327 1139.88 765.461 1139.88 771.307C1139.88 778.614 1141.7 783.911 1145.72 787.382C1149.74 790.853 1156.5 792.497 1166 792.497H1194.86C1203.08 792.497 1208.93 792.131 1212.4 791.218C1216.05 790.305 1219.34 787.93 1222.45 784.276H1226.83L1222.81 801.265C1220.8 810.033 1216.78 816.061 1210.94 819.35C1205.09 822.638 1195.04 824.282 1180.98 824.282H1156.14C1147.37 824.282 1139.69 823.551 1132.94 821.907C1125.99 820.263 1120.15 817.523 1115.4 813.687C1110.47 809.851 1106.63 804.553 1103.89 797.794C1101.15 791.035 1099.69 782.815 1099.69 772.951C1099.69 761.442 1101.52 748.29 1104.99 733.128C1109.55 713.947 1115.22 698.42 1122.34 686.547C1129.47 674.673 1138.42 665.905 1149.56 660.242C1160.7 654.761 1174.59 651.839 1191.21 651.839C1229.2 651.839 1248.2 666.453 1248.2 695.315C1248.2 699.516 1247.47 705.727 1246.01 713.582C1244.18 721.985 1242.17 728.379 1240.16 732.58C1238.16 736.964 1235.42 739.887 1232.13 741.348C1228.84 743.175 1224.27 743.906 1218.43 743.906ZM1009.45 657.136L946.427 787.382H1019.86L1009.45 657.136ZM982.962 604.161H1032.1C1037.76 604.161 1041.6 605.623 1043.79 608.545C1045.98 611.468 1047.45 615.487 1047.99 620.967L1061.33 771.124C1061.69 775.508 1062.42 778.979 1063.52 781.171C1064.43 783.546 1066.08 785.007 1068.45 786.103C1070.64 787.016 1074.12 787.382 1078.5 787.382H1082.88L1078.5 806.562C1077.22 812.773 1075.21 816.792 1072.47 818.984C1069.73 820.994 1065.35 822.09 1059.32 822.09H899.115C894.731 822.09 891.625 821.542 889.799 820.446C887.972 819.167 887.241 817.157 887.241 814.235C887.241 812.591 887.607 810.399 888.155 808.024L892.721 787.565H899.115C903.134 787.565 906.605 786.468 909.162 784.276C911.902 782.084 914.46 778.248 917.017 773.133L987.163 627.726C988.99 624.072 990.086 620.784 990.086 618.41C990.086 614.025 987.163 611.468 981.318 610.372L982.962 604.161ZM756.265 681.98C748.775 681.98 742.382 683.624 737.267 686.547C731.97 690.017 727.585 695.497 723.567 703.352C719.548 711.207 715.894 722.35 712.606 736.233C709.135 751.213 707.309 762.721 707.309 770.211C707.309 778.614 709.501 784.459 713.52 787.565C717.721 790.67 724.663 792.131 734.71 792.131H754.621C762.659 792.131 768.687 791.766 772.158 790.853C775.628 789.939 779.099 787.565 782.205 783.911H786.589L782.57 800.9C781.108 806.928 778.916 811.495 776.176 814.783C773.254 818.071 769.052 820.446 763.572 821.907C758.092 823.368 750.419 824.099 740.738 824.099H720.644C684.84 824.099 666.755 806.928 666.755 772.768C666.755 763.634 668.217 752.309 671.322 738.608C675.341 721.437 680.09 707.006 685.936 695.315C691.782 683.806 697.992 674.855 704.569 668.279C711.328 661.886 717.904 657.502 724.48 655.127C731.056 652.752 737.815 651.473 744.574 651.473H804.856L799.924 671.75C799.193 675.403 797.732 678.144 795.722 679.788C793.53 681.432 790.425 682.162 786.223 682.162H756.265V681.98ZM500.706 799.438L541.807 621.515C542.173 618.958 542.355 617.131 542.355 616.035C542.355 612.381 540.163 609.824 535.414 608.911L536.692 604.161H567.564C576.332 604.161 580.717 607.815 580.717 615.304C580.717 616.4 580.351 619.506 579.438 624.438L559.526 711.207L604.281 668.279C607.021 665.905 608.483 663.53 608.483 661.338C608.483 658.963 606.656 657.502 603.185 656.954L604.829 651.839H639.72C645.2 651.839 647.94 654.031 647.94 658.415C647.94 661.338 646.479 664.443 643.556 667.183L598.618 711.025H608.3C619.443 711.025 628.029 713.582 634.24 719.062C640.451 724.36 643.556 731.667 643.556 740.983C643.556 745.002 643.191 748.838 642.277 752.309L630.221 803.457C629.856 805.101 629.673 807.11 629.673 809.485C629.673 811.86 630.221 813.504 631.317 814.417C632.596 815.513 634.422 816.244 637.162 816.975L636.249 822.09H605.743C596.061 822.09 591.312 817.888 591.312 809.851C591.312 807.476 591.86 804.005 592.956 799.438L602.089 760.894C603.003 757.606 603.368 754.501 603.368 751.761C603.368 743.54 598.07 739.339 587.293 739.339H553.316L538.519 803.274C538.154 804.918 537.971 806.928 537.971 809.303C537.971 811.677 538.519 813.321 539.615 814.235C540.711 815.331 542.721 816.061 545.461 816.792L544.547 821.907H513.858C504.359 821.907 499.427 817.706 499.427 809.668C499.245 807.293 499.793 803.822 500.706 799.438ZM448.644 713.582C450.106 707.737 450.836 702.622 450.836 698.055C450.836 692.209 449.192 688.008 445.721 685.633C442.251 683.258 436.588 681.98 428.368 681.98C417.042 681.98 409.004 684.537 404.072 689.652C399.323 694.584 395.304 702.622 392.016 713.582H448.644ZM458.874 743.906H383.978C381.421 756.327 380.142 765.461 380.142 771.307C380.142 778.614 381.969 783.911 385.987 787.382C390.006 790.853 396.765 792.497 406.264 792.497H435.126C443.347 792.497 449.192 792.131 452.846 791.218C456.499 790.305 459.787 787.93 462.893 784.276H467.277L463.075 801.265C461.066 810.033 457.047 816.061 451.202 819.35C445.356 822.638 435.309 824.282 421.243 824.282H396.4C387.814 824.282 379.959 823.551 373.2 821.907C366.441 820.263 360.413 817.523 355.664 813.687C350.732 809.851 346.896 804.553 344.155 797.794C341.415 791.035 340.137 782.815 340.137 772.951C340.137 761.442 341.963 748.29 345.434 733.128C349.818 713.947 355.664 698.42 362.788 686.547C369.912 674.673 379.046 665.905 390.189 660.242C401.149 654.761 415.032 651.839 431.656 651.839C469.652 651.839 488.65 666.453 488.65 695.315C488.65 699.516 487.919 705.727 486.457 713.582C484.631 721.985 482.621 728.379 480.612 732.58C478.42 736.964 475.68 739.887 472.392 741.348C469.286 743.175 464.719 743.906 458.874 743.906ZM325.157 822.09H293.007C284.604 822.09 280.22 816.975 279.489 806.562L273.278 697.507L221.765 804.188C220.121 806.928 219.573 809.485 219.573 811.312C219.573 814.235 221.582 816.061 225.784 816.792L224.505 821.907H193.085C186.692 821.907 183.586 819.715 183.586 815.331C183.586 813.321 184.317 810.947 185.413 808.024L252.819 672.115C254.463 669.01 255.376 666.087 255.376 663.347C255.376 659.511 253.184 657.136 248.618 656.771L249.896 651.656H294.834C302.871 651.656 307.073 656.588 307.804 666.27L316.206 806.014C316.572 809.851 317.485 812.773 318.764 814.052C320.043 815.513 322.417 816.427 325.888 816.792L325.157 822.09ZM127.871 664.443L86.5869 732.215H129.332L127.871 664.443ZM180.846 822.09H146.321C136.457 822.09 131.342 816.427 130.794 805.284L129.88 766.922H65.9449L47.1296 798.342C44.3895 802.544 42.9281 806.197 42.9281 809.12C42.9281 813.321 45.8509 815.696 51.3311 816.061L49.687 822.09H9.49904C3.28817 822.09 6.10352e-05 819.898 6.10352e-05 815.513C6.10352e-05 812.956 0.913425 810.216 2.74015 806.928L109.786 628.457C112.161 624.438 113.257 621.332 113.257 618.592C113.257 614.208 110.517 611.285 105.037 609.641L106.681 604.161H151.801C156.733 604.161 160.752 605.623 163.492 608.363C166.232 611.103 167.511 614.939 167.511 619.506L171.895 800.9C172.078 806.562 172.808 810.216 173.904 812.043C175.183 813.869 177.923 815.148 181.942 815.879L180.846 822.09Z" fill="white"></path> <path fill-rule="evenodd" clip-rule="evenodd" d="M1808.83 986.674L1798.05 957.812L1787.64 986.674H1808.83ZM1837.69 1017.55H1820.7L1813.94 999.826H1782.7L1776.31 1017.55H1759.69L1790.01 939.544H1806.63L1837.69 1017.55ZM1701.23 939.544H1717.12V972.791C1720.59 972.425 1722.97 971.512 1724.25 970.051C1725.53 968.589 1727.35 964.571 1729.91 957.994C1733.2 949.591 1736.49 944.294 1739.77 942.284C1743.06 940.275 1748.18 939.179 1755.48 939.179C1755.85 939.179 1756.58 939.179 1757.68 939.179V950.87H1755.48C1752.2 950.87 1749.82 951.235 1748.36 952.149C1746.9 952.88 1745.62 954.158 1744.71 955.802C1743.79 957.446 1742.52 960.734 1740.69 965.849C1739.78 968.589 1738.68 970.781 1737.58 972.608C1736.49 974.435 1734.48 976.079 1731.74 977.723C1735.21 978.636 1738.13 980.646 1740.51 983.751C1742.7 986.674 1745.26 990.875 1748 996.538L1758.59 1017.91H1739.96L1730.64 997.817C1730.46 997.634 1730.28 996.904 1729.73 996.173C1729.55 995.99 1728.81 994.712 1727.72 992.519C1725.71 988.683 1724.07 986.309 1722.97 985.395C1721.69 984.482 1719.68 983.934 1717.12 983.934V1017.91H1701.23V939.544V939.544ZM1623.05 939.544H1637.66V991.423L1669.26 939.544H1684.97V1017.55H1670.18V966.58L1638.57 1017.55H1622.86V939.544H1623.05ZM1544.32 1017.55V939.544H1560.03V970.233H1590.71V939.544H1606.61V1017.55H1590.71V983.569H1560.03V1017.55H1544.32ZM1466.31 939.544H1480.93V991.423L1512.53 939.544H1528.24V1017.55H1513.63V966.58L1482.02 1017.55H1466.31V939.544ZM1395.25 939.544H1449.87V1017.55H1433.98V952.88H1410.6V986.126C1410.6 995.625 1410.23 1002.38 1409.5 1006.04C1408.95 1009.87 1407.31 1012.8 1404.94 1014.81C1402.38 1017 1398.54 1017.91 1393.43 1017.91C1391.6 1017.91 1388.13 1017.73 1383.38 1017.36V1005.12H1386.85C1390.14 1005.12 1392.51 1004.76 1393.61 1003.85C1394.71 1002.93 1395.25 1000.74 1395.25 997.269V939.544V939.544ZM1323.46 939.544H1339.17V972.791C1342.64 972.425 1345.02 971.512 1346.3 970.051C1347.58 968.589 1349.4 964.571 1351.96 957.994C1355.25 949.591 1358.54 944.294 1361.83 942.284C1365.11 940.275 1370.23 939.179 1377.54 939.179C1377.9 939.179 1378.63 939.179 1379.73 939.179V950.87H1377.54C1374.25 950.87 1371.87 951.235 1370.41 952.149C1368.95 952.88 1367.85 954.158 1366.76 955.802C1365.84 957.446 1364.57 960.734 1362.74 965.849C1361.83 968.589 1360.73 970.781 1359.63 972.608C1358.54 974.435 1356.53 976.079 1353.79 977.723C1357.26 978.636 1360.18 980.646 1362.56 983.751C1364.75 986.674 1367.31 990.875 1370.05 996.538L1380.64 1017.91H1362.01L1352.69 997.817C1352.51 997.634 1352.33 996.904 1351.78 996.173C1351.6 995.99 1350.86 994.712 1349.77 992.519C1347.76 988.683 1346.12 986.309 1344.84 985.395C1343.56 984.482 1341.55 983.934 1338.99 983.934V1017.91H1323.28V939.544H1323.46ZM1261.36 952.88H1248.93C1242.72 952.88 1238.7 953.062 1236.69 953.245C1234.68 953.61 1233.04 954.524 1231.58 956.168C1230.12 957.812 1229.39 960.004 1229.39 962.561C1229.39 965.301 1230.12 967.493 1231.4 969.137C1232.86 970.781 1234.5 971.695 1236.69 972.06C1238.7 972.425 1243.09 972.608 1249.48 972.608H1261.17V952.88H1261.36ZM1261.36 1017.55V985.03H1258.07C1253.13 985.03 1249.66 985.761 1247.47 987.222C1245.46 988.683 1241.99 993.067 1237.06 1000.56L1225.73 1017.55H1206.92L1216.42 1002.38C1220.07 996.356 1223.18 992.154 1225.37 989.779C1227.56 987.405 1230.3 985.213 1233.77 983.203C1226.65 982.107 1221.35 979.55 1218.06 975.714C1214.77 971.695 1213.31 967.128 1213.31 961.648C1213.31 956.898 1214.59 952.697 1216.97 949.043C1219.34 945.39 1222.45 942.833 1226.46 941.736C1230.3 940.458 1236.15 939.727 1244 939.727H1277.25V1017.73H1261.36V1017.55ZM1177.51 986.674L1166.73 957.812L1156.14 986.674H1177.51ZM1206.37 1017.55H1189.38L1182.62 999.826H1151.39L1144.99 1017.55H1128.37L1158.69 939.544H1175.32L1206.37 1017.55ZM1069.91 939.544H1085.62V972.791C1089.09 972.425 1091.47 971.512 1092.75 970.051C1094.03 968.589 1095.85 964.571 1098.41 957.994C1101.7 949.591 1104.99 944.294 1108.28 942.284C1111.56 940.275 1116.68 939.179 1123.99 939.179C1124.35 939.179 1125.08 939.179 1126.18 939.179V950.87H1123.99C1120.7 950.87 1118.32 951.235 1116.86 952.149C1115.4 953.062 1114.3 954.158 1113.21 955.802C1112.29 957.446 1111.02 960.734 1109.19 965.849C1108.28 968.589 1107.18 970.781 1106.08 972.608C1104.99 974.435 1102.98 976.079 1100.24 977.723C1103.71 978.636 1106.63 980.646 1108.82 983.751C1111.2 986.674 1113.76 990.875 1116.31 996.538L1126.91 1017.91H1108.46L1099.14 997.817C1098.96 997.634 1098.78 996.904 1098.23 996.173C1098.05 995.99 1097.5 994.712 1096.4 992.519C1094.39 988.683 1092.75 986.309 1091.47 985.395C1090.19 984.482 1088.36 983.934 1085.62 983.934V1017.91H1069.91V939.544V939.544ZM1040.87 988.866L1056.21 993.433C1053.84 1002.02 1050 1008.41 1044.52 1012.61C1039.04 1016.81 1032.1 1018.82 1023.88 1018.82C1013.47 1018.82 1005.07 1015.17 998.307 1008.23C991.548 1001.11 988.26 991.423 988.26 979.184C988.26 966.215 991.548 956.168 998.307 948.861C1004.88 941.736 1013.83 938.083 1024.61 938.083C1034.11 938.083 1041.97 941.006 1047.81 946.486C1051.28 949.774 1054.02 954.706 1055.85 960.917L1040.14 964.571C1039.23 960.552 1037.22 957.264 1034.48 955.072C1031.55 952.697 1028.08 951.418 1023.7 951.418C1017.85 951.418 1013.29 953.428 1009.63 957.629C1005.98 961.83 1004.15 968.407 1004.15 977.723C1004.15 987.587 1005.98 994.529 1009.45 998.73C1012.92 1002.93 1017.67 1004.94 1023.33 1004.94C1027.53 1004.94 1031.19 1003.66 1034.11 1000.92C1037.4 998.73 1039.59 994.529 1040.87 988.866ZM918.479 1017.55V939.544H976.203V952.697H934.371V969.868H973.28V983.021H934.371V1004.21H977.847V1017.36H918.479V1017.55ZM840.66 939.544H856.37V958.177C856.37 964.205 856.553 968.224 856.918 970.233C857.283 972.06 858.745 973.887 860.937 975.348C863.129 976.81 866.234 977.54 870.618 977.54C873.906 977.54 877.012 977.175 879.569 976.444C882.127 975.714 884.319 974.618 886.328 973.156V939.544H902.038V1017.55H886.328V986.126C883.04 987.587 879.935 988.683 876.829 989.414C873.724 990.145 870.618 990.51 867.696 990.51C859.841 990.51 853.447 988.683 848.15 985.03C842.852 981.376 840.295 974.983 840.295 966.032V939.544H840.66ZM763.937 939.544H778.551V991.423L810.154 939.544H825.864V1017.55H811.25V966.58L779.647 1017.55H763.937V939.544ZM702.742 939.544H755.535V952.697H718.635V1017.36H702.742V939.544ZM630.221 978.636C630.221 987.405 632.23 994.164 636.249 998.73C640.451 1003.3 645.566 1005.67 651.776 1005.67C658.17 1005.67 663.285 1003.48 667.304 998.913C671.322 994.346 673.332 987.587 673.332 978.454C673.332 969.503 671.322 962.927 667.486 958.542C663.65 954.158 658.353 951.966 651.776 951.966C645.2 951.966 640.085 954.158 636.067 958.725C632.23 962.926 630.221 969.503 630.221 978.636ZM613.963 979.002C613.963 971.147 615.242 964.388 617.617 958.908C619.443 955.072 621.818 951.418 624.924 948.13C628.029 945.025 631.317 942.65 634.971 941.188C639.903 939.179 645.383 938.083 651.776 938.083C663.285 938.083 672.418 941.736 679.36 948.861C686.302 956.168 689.59 966.032 689.59 978.636C689.59 991.241 686.119 1001.11 679.36 1008.23C672.418 1015.35 663.285 1018.82 651.959 1018.82C640.268 1018.82 631.134 1015.35 624.193 1008.23C617.434 1001.29 613.963 991.423 613.963 979.002ZM546.557 939.544H601.176V1017.55H585.466V952.88H562.084V986.126C562.084 995.625 561.719 1002.38 561.171 1006.04C560.623 1009.87 558.979 1012.8 556.604 1014.81C554.047 1017 550.21 1017.91 545.096 1017.91C543.269 1017.91 539.798 1017.73 535.049 1017.36V1005.12H538.519C541.807 1005.12 544 1004.76 545.096 1003.85C546.192 1002.93 546.74 1000.74 546.74 997.269V983.934V939.544H546.557ZM471.844 978.636C471.844 987.405 473.853 994.164 478.055 998.73C482.256 1003.3 487.371 1005.67 493.582 1005.67C499.975 1005.67 505.09 1003.48 509.109 998.913C513.128 994.346 515.137 987.587 515.137 978.454C515.137 969.503 513.128 962.927 509.109 958.542C505.273 954.158 499.975 951.966 493.582 951.966C487.006 951.966 481.891 954.158 477.872 958.725C473.853 962.926 471.844 969.503 471.844 978.636ZM455.769 979.002C455.769 971.147 457.047 964.388 459.239 958.908C461.066 955.072 463.441 951.418 466.546 948.13C469.652 945.025 472.94 942.65 476.593 941.188C481.525 939.179 487.006 938.083 493.399 938.083C504.908 938.083 514.041 941.736 520.983 948.861C527.924 956.168 531.395 966.032 531.395 978.636C531.395 991.241 527.924 1001.11 521.165 1008.23C514.224 1015.35 505.09 1018.82 493.765 1018.82C482.073 1018.82 472.94 1015.35 465.998 1008.23C459.057 1001.29 455.769 991.423 455.769 979.002ZM412.658 1017.55V952.88H389.458V939.727H451.384V952.88H428.368V1017.55H412.658ZM363.336 986.674L352.559 957.812L342.146 986.674H363.336ZM392.198 1017.55H375.21L368.451 999.826H337.214L330.82 1017.55H314.197L344.521 939.544H361.144L392.198 1017.55ZM231.081 1017.55V939.544H254.646L268.529 992.702L282.23 939.544H305.977V1017.55H291.363V956.168L276.019 1017.55H260.857L245.512 956.168V1017.55H231.081ZM159.656 978.636C159.656 987.405 161.666 994.164 165.867 998.73C169.886 1003.3 175.001 1005.67 181.394 1005.67C187.788 1005.67 192.903 1003.48 196.921 998.913C200.94 994.346 202.95 987.587 202.95 978.454C202.95 969.503 200.94 962.927 197.104 958.542C193.268 954.158 187.97 951.966 181.394 951.966C175.001 951.966 169.703 954.158 165.684 958.725C161.666 962.926 159.656 969.503 159.656 978.636ZM143.398 979.002C143.398 971.147 144.677 964.388 146.869 958.908C148.696 955.072 151.071 951.418 154.176 948.13C157.281 944.842 160.57 942.65 164.223 941.188C169.155 939.179 174.635 938.083 181.029 938.083C192.537 938.083 201.671 941.736 208.612 948.861C215.554 956.168 219.025 966.032 219.025 978.636C219.025 991.241 215.554 1001.11 208.795 1008.23C201.854 1015.35 192.72 1018.82 181.394 1018.82C169.703 1018.82 160.57 1015.35 153.628 1008.23C146.869 1001.29 143.398 991.423 143.398 979.002ZM100.47 1017.55V952.88H77.2707V939.727H139.197V952.88H116.18V1017.55H100.47ZM56.8114 988.866L72.1559 993.433C69.7812 1002.02 65.945 1008.41 60.4649 1012.61C54.9847 1016.81 48.0431 1018.82 39.8228 1018.82C29.4105 1018.82 20.8249 1015.17 14.2487 1008.23C7.67244 1001.11 4.20166 991.423 4.20166 979.184C4.20166 966.215 7.48977 956.168 14.2487 948.861C20.8249 941.736 29.7758 938.083 40.7362 938.083C50.2352 938.083 57.9074 941.006 63.9356 946.486C67.5891 949.774 70.1465 954.706 71.9732 960.917L56.2634 964.571C55.35 960.552 53.3406 957.264 50.6005 955.072C47.6778 952.697 44.207 951.418 39.8228 951.418C33.9773 951.418 29.4105 953.428 25.757 957.629C22.1036 961.83 20.2769 968.407 20.2769 977.723C20.2769 987.587 22.1036 994.529 25.5744 998.73C29.0451 1002.93 33.7946 1004.94 39.2748 1004.94C43.4763 1004.94 47.1297 1003.66 50.0525 1000.92C53.3406 998.73 55.5327 994.529 56.8114 988.866Z" fill="white"></path> <defs> <clipPath id="clip0_154_39"> <rect width="580.729" height="531.982" fill="white" transform="translate(630.277)"></rect> </clipPath> </defs> </svg> 